<?xml version="1.0" encoding="UTF-8" standalone="no"?>
<!-- Created with Inkscape (http://www.inkscape.org/) -->

<svg
   xmlns:dc="http://purl.org/dc/elements/1.1/"
   xmlns:cc="http://creativecommons.org/ns#"
   xmlns:rdf="http://www.w3.org/1999/02/22-rdf-syntax-ns#"
   xmlns:svg="http://www.w3.org/2000/svg"
   xmlns="http://www.w3.org/2000/svg"
   xmlns:sodipodi="http://sodipodi.sourceforge.net/DTD/sodipodi-0.dtd"
   xmlns:inkscape="http://www.inkscape.org/namespaces/inkscape"
   viewBox="0 0 237 120"
   preserveAspectRatio="xMinYMin meet"
   id="svg2"
   version="1.1"
   inkscape:version="0.48.4 r9939"
   sodipodi:docname="Neues Dokument 1">
  <defs
     id="defs4" />
  <sodipodi:namedview
     id="base"
     pagecolor="#ffffff"
     bordercolor="#666666"
     borderopacity="1.0"
     inkscape:pageopacity="0.0"
     inkscape:pageshadow="2"
     inkscape:zoom="3.959798"
     inkscape:cx="28.42756"
     inkscape:cy="78.445798"
     inkscape:document-units="px"
     inkscape:current-layer="layer1"
     showgrid="false"
     fit-margin-top="0"
     fit-margin-left="0"
     fit-margin-right="0"
     fit-margin-bottom="0"
     inkscape:window-width="1920"
     inkscape:window-height="1022"
     inkscape:window-x="-4"
     inkscape:window-y="5"
     inkscape:window-maximized="1" />
  <metadata
     id="metadata7">
    <rdf:RDF>
      <cc:Work
         rdf:about="">
        <dc:format>image/svg+xml</dc:format>
        <dc:type
           rdf:resource="http://purl.org/dc/dcmitype/StillImage" />
        <dc:title></dc:title>
      </cc:Work>
    </rdf:RDF>
  </metadata>
  <g
     inkscape:label="Ebene 1"
     inkscape:groupmode="layer"
     id="layer1"
     transform="translate(-232.8025,-472.26207)">
    <g
       transform="matrix(1.25,0,0,-1.25,232.8025,592.4623)"
       inkscape:label="ink_ext_XXXXXX"
       id="g2993">
      <g
         transform="scale(0.1,0.1)"
         id="g2995">
        <path
           id="path2997"
           style="fill:#e4183a;fill-opacity:1;fill-rule:nonzero;stroke:none"
           d="m 1875.16,169.883 0,151.125 -47.45,-151.125 47.45,0 z m -62.59,204.133 62.59,0 0,5.984 -0.14,0 c -0.1,42.785 -5.02,57.59 -5.02,57.59 0,-5.293 1.86,47.754 -73.76,61.023 -42,7.356 -26.53,47.793 -26.53,47.793 76.94,-11.933 74.27,106.133 84.9,195.012 10.6,88.895 -68.98,122.051 -153.89,132.676 -84.9,10.605 -123.38,-67.715 -123.38,-78.321 0,-10.617 -6.64,-39.804 -11.94,-82.257 -5.3,-42.442 5.03,-85.586 15.92,-110.106 10.61,-23.879 71.64,-13.273 71.64,-13.273 0,0 -1.33,-9.239 -5.3,-47.703 -3.98,-38.469 -72.97,-51.739 -72.97,-51.739 -5.31,47.313 -42.44,61.024 -42.44,61.024 -177.78,87.558 -118.08,155.215 -118.08,155.215 0,0 38.47,28.742 58.37,107.461 27.87,110.226 -101,138.281 -152.56,145.929 -59.71,8.828 -96.14,-30.488 -106.13,-44.23 -10.61,-14.598 -17.24,-59.258 -17.24,-59.258 0,0 -26.14,-50.008 -33.17,-61.016 -4.51,-7.078 1.33,-10.613 1.33,-10.613 l 19.9,-13.262 c -5.31,-54.394 39.78,-66.328 46.42,-71.64 6.64,-5.313 15.93,-42.453 -1.32,-63.684 -17.24,-21.219 -47.76,-26.531 -94.18,-39.805 -26.8,-7.644 -54.91,-79.785 -73.9,-139.441 -35.67,55.098 -176.831,89.922 -176.831,89.922 0,0 -2.656,29.18 -2.656,45.098 0,15.918 10.617,27.859 27.856,31.835 13.183,3.055 33.16,5.313 46.425,29.188 13.262,23.887 13.262,66.328 13.262,79.59 0,13.273 5.567,34.824 13.274,61.035 6.628,22.551 10.613,23.879 0,58.371 -10.61,34.492 -74.29,42.449 -95.508,47.754 -21.235,5.312 -103.485,5.312 -145.93,-2.656 -42.449,-7.949 -63.684,-100.821 -71.641,-177.766 -7.961,-76.941 71.641,-108.777 68.989,-124.695 -2.66,-15.918 -14.66,-46.086 -37.149,-55.723 -18.574,-7.961 -84.902,-45.109 -84.902,-45.109 -18.566,92.871 -177.77,108.789 -177.77,108.789 53.071,2.656 58.371,90.215 58.371,90.215 0,0 1.329,-1.328 25.211,3.976 23.879,5.301 6.629,38.477 -1.328,57.039 -7.965,18.575 2.657,50.41 -10.609,127.364 -13.274,76.945 -169.816,74.289 -198.996,74.289 -29.192,0 -106.129,-21.231 -143.278,-98.164 -37.14,-76.954 18.583,-137.981 18.583,-137.981 0,0 23.867,-10.605 21.218,-37.148 -2.652,-26.524 -7.961,-39.793 -31.84,-47.743 -23.882,-7.96 -53.062,-26.542 -92.8629,-50.421 C 43.7813,560.559 1.32813,377.48 1.32813,377.48 l 0.33984,0 0,-3.328 66.37503,0 c 0,-7.05 0,-14.101 -0.8321,-23.222 l 0.8321,0 c 11.6054,18.25 29.4375,28.203 58.887,28.203 49.359,0 74.664,-37.746 74.664,-95.813 0,-56.101 -22.692,-99.011 -72.606,-113.437 l 153.801,0 c -35.469,12.043 -57.141,41.222 -57.141,95.187 0,70.098 49.352,114.063 112.813,114.063 67.609,0 102.035,-37.746 102.035,-103.281 0,-53.262 -30.183,-91.329 -72.598,-105.969 l 105.786,0 0,300.918 75.488,0 0,-300.918 47.277,0 0,204.269 75.481,0 0,-204.269 79.89,0 c -18.672,8.625 -25.968,26.758 -25.968,61.594 l 0,84.617 -26.129,0 0,58.058 26.129,0 0,58.067 75.488,20.332 0,-78.399 38.57,0 0,-58.058 -38.57,0 0,-69.278 c 0,-15.339 4.976,-21.14 17.422,-21.14 6.629,0 12.859,0.828 19.082,2.488 l 4.125,-58.281 332.691,0 0,300.773 75.5,0 0,-175.859 42.29,79.219 92.91,0 -62.63,-94.571 65.58,-109.562 57.13,0 c -18.43,8.691 -25.65,26.808 -25.65,61.445 l 0,84.61 -26.14,0 0,58.078 26.14,0 0,58.066 75.48,20.32 0,-78.386 38.58,0 0,-58.078 -38.58,0 0,-69.266 c 0,-15.344 4.98,-21.152 17.43,-21.152 6.64,0 12.85,0.828 19.07,2.488 l 4.13,-58.125 39,0 0,204.133 75.49,0 0,-204.133 83.56,0 -64.07,204.133 80.05,0 17.41,-61.399 c 7.07,-24.871 11.62,-44.375 15.36,-64.695 l 0.84,0 c 3.73,20.32 7.46,39.824 13.69,64.695 l 15.34,61.399 z M 679.398,433.469 c 0,-24.055 -20.316,-43.547 -45.21,-43.547 -24.887,0 -45.208,19.492 -45.208,43.547 0,24.062 20.321,43.554 45.208,43.554 24.894,0 45.21,-19.492 45.21,-43.554 m 978.462,-0.149 c 0,-24.062 -20.32,-43.543 -45.2,-43.543 -24.91,0 -45.22,19.481 -45.22,43.543 0,24.063 20.31,43.555 45.22,43.555 24.88,0 45.2,-19.492 45.2,-43.555 M 75.0898,267.141 l 0,-42.297 c 4.1368,-0.828 8.7071,-1.66 14.5079,-1.66 17.4223,0 32.3593,12.031 32.3593,51.836 0,29.875 -6.637,41.484 -20.324,41.484 -13.6916,0 -26.5432,-16.172 -26.5432,-49.363 M 332.242,228.574 c 19.496,0 29.867,16.992 29.867,42.715 0,29.453 -7.468,43.145 -28.207,43.145 -14.933,0 -29.863,-12.032 -29.863,-41.063 0,-31.945 7.879,-44.797 28.203,-44.797 m 962.968,-58.691 -45.05,93.379 0,-93.379 45.05,0"
           inkscape:connector-curvature="0" />
        <path
           id="path2999"
           style="fill:#e4183a;fill-opacity:1;fill-rule:nonzero;stroke:none"
           d="m 0,31.75 74.293,0 0,134.813 L 0,166.563 0,31.75 z"
           inkscape:connector-curvature="0" />
        <path
           id="path3001"
           style="fill:#ffffff;fill-opacity:1;fill-rule:nonzero;stroke:none"
           d="m 1087.75,323 -22.01,-91.992 c -0.66,-3.34 -0.99,-6.348 -0.99,-9.004 0,-4.336 0.91,-8.496 2.75,-12.5 1.84,-4.004 4.58,-5.996 8.24,-5.996 4.01,0 8.09,2.324 12.26,6.992 4.16,4.668 8,10.664 11.49,18.008 3.51,7.324 6.34,15.242 8.51,23.75 2.16,8.496 3.25,16.746 3.25,24.746 0,10.332 -2.25,20.574 -6.76,30.75 -4.49,10.156 -10.99,19.25 -19.49,27.246 -8.5,8 -18.75,14.504 -30.75,19.504 -12,5 -25.5,7.5 -40.5,7.5 -9.67,0 -20,-1.926 -30.996,-5.754 -11.008,-3.836 -21.172,-10.164 -30.508,-18.992 C 942.91,328.41 935.16,316.66 929,302.004 c -6.172,-14.668 -9.25,-32.844 -9.25,-54.504 0,-13.992 2.828,-26.746 8.496,-38.25 5.664,-11.496 13.164,-21.418 22.496,-29.746 9.336,-8.34 19.844,-14.844 31.504,-19.504 11.66,-4.668 23.494,-7 35.504,-7 17.33,0 31.74,1.582 43.25,4.754 11.5,3.156 22.75,7.746 33.75,13.75 l 4,-24.004 c -12,-6.668 -24.67,-12.168 -38.01,-16.492 -13.34,-4.348 -27.5,-6.504 -42.5,-6.504 -25.33,0 -47.244,4.004 -65.74,12 -18.5,8 -33.75,18.332 -45.754,30.996 -11.996,12.668 -20.84,26.504 -26.496,41.504 -5.672,15 -8.504,29.16 -8.504,42.5 0,20.996 3.836,40.156 11.5,57.5 7.66,17.324 18.004,32.082 31,44.25 13.004,12.156 28.082,21.66 45.246,28.496 17.168,6.836 35.254,10.254 54.258,10.254 18,0 34.82,-2.922 50.5,-8.75 15.65,-5.84 29.25,-13.84 40.75,-24.004 11.5,-10.168 20.59,-22.246 27.25,-36.25 6.66,-13.996 10,-29.336 10,-45.996 0,-10 -1.59,-20.422 -4.75,-31.25 -3.16,-10.84 -7.84,-20.754 -14,-29.746 -6.18,-9.004 -13.75,-16.504 -22.76,-22.5 -8.99,-6.008 -19.33,-9.004 -30.99,-9.004 -6.66,0 -12.25,1.16 -16.75,3.496 -4.5,2.332 -8.18,5.086 -11.01,8.25 -2.83,3.164 -4.83,6.328 -5.99,9.504 -1.18,3.164 -1.75,5.41 -1.75,6.746 l -1.5,0 c -0.35,-1.668 -1.75,-3.992 -4.25,-7 -2.5,-3 -5.75,-5.996 -9.75,-8.996 -4,-2.996 -8.5,-5.672 -13.5,-7.996 -5,-2.344 -10.348,-3.672 -16.004,-4.004 -3.992,0 -8.172,0.75 -12.5,2.246 -4.344,1.504 -8.34,4.16 -12,8.008 -3.672,3.828 -6.75,8.828 -9.25,15 -2.5,6.152 -3.75,13.75 -3.75,22.742 0,8.664 1.582,18.508 4.758,29.504 3.152,10.996 7.832,21.504 13.992,31.504 6.164,10 14.082,18.406 23.75,25.242 9.664,6.836 21.004,10.254 33.994,10.254 4.67,0 8.42,-0.594 11.25,-1.746 2.83,-1.172 5.09,-2.676 6.76,-4.504 1.66,-1.844 3.09,-3.836 4.25,-6.004 1.16,-2.168 2.41,-4.414 3.75,-6.75 l 3.99,13 29.51,0 z m -45.5,-25 c -2,4.004 -5.84,6.004 -11.51,6.004 -4.33,0 -8.9,-1.59 -13.75,-4.754 -4.83,-3.164 -9.33,-7.59 -13.49,-13.242 -4.164,-5.676 -7.672,-12.344 -10.504,-20 -2.84,-7.676 -4.246,-16.008 -4.246,-25 0,-9.68 1.582,-17.422 4.746,-23.254 3.164,-5.84 6.584,-8.75 10.254,-8.75 9.34,0 17.91,5.5 25.74,16.496 7.83,11.004 13.09,29.16 15.76,54.5 0,8 -1,14.004 -3,18"
           inkscape:connector-curvature="0" />
        <path
           id="path3003"
           style="fill:none;stroke:#ffffff;stroke-width:11;stroke-linecap:butt;stroke-linejoin:miter;stroke-miterlimit:3.74399996;stroke-opacity:1;stroke-dasharray:none"
           d="m 1087.75,323 -22.01,-91.992 c -0.66,-3.34 -0.99,-6.348 -0.99,-9.004 0,-4.336 0.91,-8.496 2.75,-12.5 1.84,-4.004 4.58,-5.996 8.24,-5.996 4.01,0 8.09,2.324 12.26,6.992 4.16,4.668 8,10.664 11.49,18.008 3.51,7.324 6.34,15.242 8.51,23.75 2.16,8.496 3.25,16.746 3.25,24.746 0,10.332 -2.25,20.574 -6.76,30.75 -4.49,10.156 -10.99,19.25 -19.49,27.246 -8.5,8 -18.75,14.504 -30.75,19.504 -12,5 -25.5,7.5 -40.5,7.5 -9.67,0 -20,-1.926 -30.996,-5.754 -11.008,-3.836 -21.172,-10.164 -30.508,-18.992 C 942.91,328.41 935.16,316.66 929,302.004 c -6.172,-14.668 -9.25,-32.844 -9.25,-54.504 0,-13.992 2.828,-26.746 8.496,-38.25 5.664,-11.496 13.164,-21.418 22.496,-29.746 9.336,-8.34 19.844,-14.844 31.504,-19.504 11.66,-4.668 23.494,-7 35.504,-7 17.33,0 31.74,1.582 43.25,4.754 11.5,3.156 22.75,7.746 33.75,13.75 l 4,-24.004 c -12,-6.668 -24.67,-12.168 -38.01,-16.492 -13.34,-4.348 -27.5,-6.504 -42.5,-6.504 -25.33,0 -47.244,4.004 -65.74,12 -18.5,8 -33.75,18.332 -45.754,30.996 -11.996,12.668 -20.84,26.504 -26.496,41.504 -5.672,15 -8.504,29.16 -8.504,42.5 0,20.996 3.836,40.156 11.5,57.5 7.66,17.324 18.004,32.082 31,44.25 13.004,12.156 28.082,21.66 45.246,28.496 17.168,6.836 35.254,10.254 54.258,10.254 18,0 34.82,-2.922 50.5,-8.75 15.65,-5.84 29.25,-13.84 40.75,-24.004 11.5,-10.168 20.59,-22.246 27.25,-36.25 6.66,-13.996 10,-29.336 10,-45.996 0,-10 -1.59,-20.422 -4.75,-31.25 -3.16,-10.84 -7.84,-20.754 -14,-29.746 -6.18,-9.004 -13.75,-16.504 -22.76,-22.5 -8.99,-6.008 -19.33,-9.004 -30.99,-9.004 -6.66,0 -12.25,1.16 -16.75,3.496 -4.5,2.332 -8.18,5.086 -11.01,8.25 -2.83,3.164 -4.83,6.328 -5.99,9.504 -1.18,3.164 -1.75,5.41 -1.75,6.746 l -1.5,0 c -0.35,-1.668 -1.75,-3.992 -4.25,-7 -2.5,-3 -5.75,-5.996 -9.75,-8.996 -4,-2.996 -8.5,-5.672 -13.5,-7.996 -5,-2.344 -10.348,-3.672 -16.004,-4.004 -3.992,0 -8.172,0.75 -12.5,2.246 -4.344,1.504 -8.34,4.16 -12,8.008 -3.672,3.828 -6.75,8.828 -9.25,15 -2.5,6.152 -3.75,13.75 -3.75,22.742 0,8.664 1.582,18.508 4.758,29.504 3.152,10.996 7.832,21.504 13.992,31.504 6.164,10 14.082,18.406 23.75,25.242 9.664,6.836 21.004,10.254 33.994,10.254 4.67,0 8.42,-0.594 11.25,-1.746 2.83,-1.172 5.09,-2.676 6.76,-4.504 1.66,-1.844 3.09,-3.836 4.25,-6.004 1.16,-2.168 2.41,-4.414 3.75,-6.75 l 3.99,13 29.51,0 z m -45.5,-25 c -2,4.004 -5.84,6.004 -11.51,6.004 -4.33,0 -8.9,-1.59 -13.75,-4.754 -4.83,-3.164 -9.33,-7.59 -13.49,-13.242 -4.164,-5.676 -7.672,-12.344 -10.504,-20 -2.84,-7.676 -4.246,-16.008 -4.246,-25 0,-9.68 1.582,-17.422 4.746,-23.254 3.164,-5.84 6.584,-8.75 10.254,-8.75 9.34,0 17.91,5.5 25.74,16.496 7.83,11.004 13.09,29.16 15.76,54.5 0,8 -1,14.004 -3,18 z"
           inkscape:connector-curvature="0" />
        <path
           id="path3005"
           style="fill:#e4183a;fill-opacity:1;fill-rule:nonzero;stroke:none"
           d="m 1074.32,176.613 0,-6.73 59.01,0 -33.35,10.773 -25.66,-4.043"
           inkscape:connector-curvature="0" />
        <path
           id="path3007"
           style="fill:#e4183a;fill-opacity:1;fill-rule:nonzero;stroke:none"
           d="m 201.137,64.2305 c 0,9.8125 -6.02,19.2187 -18.36,21.6015 l 0,0.2735 c 9.813,3.6406 14.707,11.9218 14.707,21.6015 0,14.59 -10.496,22.988 -30.839,22.988 -11.508,0 -21.879,-0.422 -29.028,-0.422 l -11.781,0 0,-9.238 c 3.652,-0.84 8.004,-1.531 12.211,-1.816 l 0,-72.5276 c -4.207,-0.2851 -8.559,-0.9883 -12.211,-1.8281 l 0,-9.2383 12.211,0 c 11.758,0 20.601,-0.418 25.793,-0.418 29.168,0 37.297,16.668 37.297,29.0235 m -19.621,41.0935 c 0,-9.5427 -6.028,-15.2927 -20.211,-15.2927 -3.219,0 -5.606,0 -8.141,0.1367 l 0,28.066 c 3.652,0.137 6.742,0.274 10.953,0.274 13.051,0 17.399,-5.469 17.399,-13.184 m 3.371,-41.3787 c 0,-9.539 -6.457,-16.2773 -20.352,-16.2773 -4.91,0 -8.976,0.2812 -11.371,0.7031 l 0,30.1641 c 2.113,0.1484 7.024,0.1484 8.559,0.1484 13.343,0 23.164,-3.9375 23.164,-14.7383 m 108.531,-27.332 0,9.2383 c -3.785,0.2734 -8.273,0.8398 -11.641,1.3945 l 0,58.0669 c -8.539,0.421 -18.222,0 -25.648,-0.985 l 0,-9.2382 c 3.644,-0.2851 7.719,-0.8398 10.797,-1.2617 l 0,-22.0312 c 0,-14.0313 -7.86,-25.1055 -18.238,-25.1055 -8.141,0 -10.536,5.1836 -10.536,13.8867 l 0,44.7349 c -9.093,0.421 -19.047,-0.145 -26.343,-0.985 l 0,-9.2382 c 3.644,-0.2851 8.136,-0.8398 11.496,-1.3984 l 0,-37.1875 c 0,-12.1953 5.05,-22.2851 20.89,-22.2851 11.649,0 20.075,6.1718 24.129,15.1367 l 0.285,0 c -0.703,-4.2071 -0.98,-9.8047 -0.98,-13.7305 8.406,-0.418 18.5,0.1484 25.789,0.9883 m -19.77,90.4497 c 0,4.617 -3.789,8.406 -8.414,8.406 -4.761,0 -8.55,-3.789 -8.55,-8.406 0,-4.766 3.789,-8.555 8.55,-8.555 4.625,0 8.414,3.789 8.414,8.555 m -27.492,0 c 0,4.617 -3.777,8.406 -8.551,8.406 -4.757,0 -8.402,-3.789 -8.402,-8.406 0,-4.766 3.645,-8.555 8.402,-8.555 4.774,0 8.551,3.789 8.551,8.555 M 351.625,106.582 C 337.18,107.98 330.168,99.2891 326.934,89.9023 l -0.137,0 c 0.84,5.3243 1.262,11.4847 1.262,15.4107 -8.403,0.421 -18.493,-0.145 -26.356,-0.985 l 0,-9.2382 c 4.074,-0.2851 8.844,-0.8398 12.211,-1.3984 l 0,-47 c -4.207,-0.2851 -8.559,-0.9883 -12.211,-1.8281 l 0,-9.2383 39.266,0 0,9.2383 c -3.656,0.8398 -8.004,1.543 -12.203,1.8281 l 0,17.2539 c 0,20.8985 6.871,30.586 22.152,27.9219 l 0.707,14.7148 z m 76.574,-79.2851 c 0,12.9492 -8.402,19.6679 -23.551,20.2344 l -11.793,0.4179 c -8.269,0.2656 -11.5,1.3789 -11.5,4.9805 0,1.7969 1.399,3.8789 4.071,5.1367 2.242,-0.5547 4.07,-0.8398 6.59,-0.8398 19.781,0 29.589,10.6445 29.589,25.2343 0,4.6289 -1.679,8.5547 -4.617,11.086 l 10.649,0 0,11.7661 -23.692,0 c -3.648,0.851 -6.449,1.406 -10.515,1.406 -19.782,0 -30.153,-12.1877 -30.153,-26.219 0,-9.1211 3.93,-15.4297 10.371,-19.0742 -4.761,-2.2344 -7.984,-6.9727 -7.984,-11.961 0,-4.7382 2.66,-8.6523 6.859,-10.4804 C 366.492,35.625 361.176,28.7109 361.176,20.9375 361.176,7.28516 372.523,0 390.758,0 c 22.449,0 37.441,12.1875 37.441,27.2969 M 407.18,81.6211 c 0,-8.6992 -5.614,-13.8945 -14.735,-13.8945 -9.41,0 -14.597,5.1953 -14.597,13.8945 0,8 5.468,14.0234 14.879,14.0234 9.261,0 14.453,-5.4687 14.453,-14.0234 m 6.164,-56.4453 c 0,-7.6172 -7.149,-13.543 -20.199,-13.543 -10.11,0 -17.122,4.5 -17.122,11.9922 0,4.8047 3.094,9.0313 7.864,12.4219 l 3.781,0 12.766,-0.4219 c 8.98,-0.4297 12.91,-4.375 12.91,-10.4492 m 86.523,52.5117 c 0,15.8594 -8.269,29.0315 -28.183,29.0315 -20.2,0 -32.11,-15.8401 -32.11,-36.7268 0,-24.5625 11.91,-35.7734 33.371,-35.7734 8.7,0 17.391,1.6914 24.684,4.4921 l -1.965,11.6329 c -6.309,-2.6758 -13.32,-4.0743 -20.051,-4.0743 -14.32,0 -21.047,7.0235 -20.629,22.8828 l 44.325,0 c 0.418,2.9375 0.558,6.2969 0.558,8.5352 m -14.988,1.8242 -29.613,0 c 1.261,9.6875 7.16,15.9961 15.578,15.9961 8.844,0 14.312,-6.1719 14.035,-15.9961 m 76.976,27.0703 c -14.449,1.398 -21.46,-7.2929 -24.675,-16.6797 l -0.145,0 c 0.84,5.3243 1.262,11.4847 1.262,15.4107 -8.41,0.421 -18.5,-0.145 -26.348,-0.985 l 0,-9.2382 c 4.059,-0.2851 8.828,-0.8398 12.196,-1.3984 l 0,-47 c -4.207,-0.2851 -8.559,-0.9883 -12.196,-1.8281 l 0,-9.2383 39.246,0 0,9.2383 c -3.652,0.8398 -7.996,1.543 -12.203,1.8281 l 0,17.2539 c 0,20.8985 6.871,30.586 22.164,27.9219 l 0.699,14.7148 z m 77.27,-32.6757 c 0,21.0468 -9.102,32.8127 -25.648,32.8127 -10.239,0 -18.52,-5.469 -22.172,-14.1487 l -0.137,0 c 0.695,3.6406 1.117,9.2387 1.117,13.3087 l 0,32.109 c -9.101,0.422 -19.058,-0.136 -26.91,-0.976 l 0,-9.246 c 4.074,-0.274 8.563,-0.84 11.922,-1.399 l 0,-88.9139 c 7.707,-1.9648 14.988,-2.9414 24.808,-2.9414 23.301,0 37.02,15.2656 37.02,39.3946 M 623.438,72.5 c 0,-18.7969 -8.282,-26.0937 -20.063,-26.0937 -4.488,0 -8,0.4218 -11.09,1.4062 l 0,21.6016 c 0,11.789 6.031,24.8359 17.262,24.8359 9.398,0 13.891,-7.7148 13.891,-21.75 m 89.039,5.1875 c 0,15.8594 -8.262,29.0315 -28.18,29.0315 -20.199,0 -32.109,-15.8401 -32.109,-36.7268 0,-24.5625 11.91,-35.7734 33.378,-35.7734 8.704,0 17.387,1.6914 24.668,4.4921 l -1.957,11.6329 c -6.3,-2.6758 -13.312,-4.0743 -20.05,-4.0743 -14.309,0 -21.047,7.0235 -20.629,22.8828 l 44.316,0 c 0.422,2.9375 0.563,6.2969 0.563,8.5352 m -14.981,1.8242 -29.609,0 c 1.258,9.6875 7.148,15.9961 15.57,15.9961 8.84,0 14.32,-6.1719 14.039,-15.9961 m 70.942,-43.4648 -1.258,12.039 c -2.524,-0.5546 -5.477,-0.9765 -8.563,-0.9765 -7.012,0 -9.109,2.8125 -9.109,13.1836 l 0,33.3984 18.226,0 0,11.6216 -18.226,0 0,26.222 -14.992,-4.062 0,-22.16 -13.321,0 0,-11.6216 13.321,0 0,-38.0273 c 0,-15.5547 4.476,-21.2969 19.339,-21.2969 4.622,0 10.368,0.7031 14.583,1.6797 m 72.226,41.6406 c 0,15.8594 -8.266,29.0315 -28.18,29.0315 -20.199,0 -32.109,-15.8401 -32.109,-36.7268 0,-24.5625 11.91,-35.7734 33.371,-35.7734 8.699,0 17.391,1.6914 24.684,4.4921 l -1.965,11.6329 c -6.309,-2.6758 -13.32,-4.0743 -20.047,-4.0743 -14.324,0 -21.051,7.0235 -20.633,22.8828 l 44.32,0 c 0.422,2.9375 0.559,6.2969 0.559,8.5352 m -14.988,1.8242 -29.613,0 c 1.261,9.6875 7.164,15.9961 15.582,15.9961 8.843,0 14.312,-6.1719 14.031,-15.9961 m 56.359,47.5513 c 0,5.183 -4.34,9.382 -9.668,9.382 -5.32,0 -9.531,-4.199 -9.531,-9.382 0,-5.325 4.211,-9.395 9.531,-9.395 5.328,0 9.668,4.207 9.668,9.395 m 9.403,-91.438 0,9.2383 c -3.372,0.8398 -7.583,1.543 -11.641,1.8281 l 0,58.6216 c -9.113,0.429 -19.199,-0.145 -27.055,-0.985 l 0,-9.2382 c 4.067,-0.2851 8.836,-0.8398 12.203,-1.3984 l 0,-47 c -4.207,-0.2851 -8.558,-0.9883 -12.203,-1.8281 l 0,-9.2383 38.696,0 z m 44.597,0 0,9.2383 c -3.367,0.8398 -7.441,1.543 -11.5,1.8281 l 0,91.2966 c -9.109,0.422 -18.922,-0.136 -26.918,-0.976 l 0,-9.246 c 3.93,-0.274 8.559,-0.84 11.93,-1.399 l 0,-79.6756 c -3.934,-0.2851 -8.141,-0.9883 -11.5,-1.8281 l 0,-9.2383 37.988,0 z m 37.578,91.438 c 0,5.183 -4.336,9.382 -9.668,9.382 -5.312,0 -9.531,-4.199 -9.531,-9.382 0,-5.325 4.219,-9.395 9.531,-9.395 5.332,0 9.668,4.207 9.668,9.395 m 9.407,-91.438 0,9.2383 c -3.372,0.8398 -7.59,1.543 -11.641,1.8281 l 0,58.6216 c -9.113,0.429 -19.199,-0.145 -27.055,-0.985 l 0,-9.2382 c 4.059,-0.2851 8.828,-0.8398 12.199,-1.3984 l 0,-47 c -4.21,-0.2851 -8.558,-0.9883 -12.199,-1.8281 l 0,-9.2383 38.696,0 z m 76.57,-8.3281 c 0,12.9492 -8.4,19.6679 -23.55,20.2344 l -11.78,0.4179 c -8.28,0.2656 -11.52,1.3789 -11.52,4.9805 0,1.7969 1.4,3.8789 4.08,5.1367 2.24,-0.5547 4.06,-0.8398 6.6,-0.8398 19.78,0 29.58,10.6445 29.58,25.2343 0,4.6289 -1.68,8.5547 -4.62,11.086 l 10.64,0 0,11.7661 -23.67,0 c -3.67,0.851 -6.46,1.406 -10.54,1.406 -19.77,0 -30.13,-12.1877 -30.13,-26.219 0,-9.1211 3.914,-15.4297 10.36,-19.0742 -4.77,-2.2344 -7.989,-6.9727 -7.989,-11.961 0,-4.7382 2.668,-8.6523 6.869,-10.4804 C 997.891,35.625 992.566,28.7109 992.566,20.9375 992.566,7.28516 1003.92,0 1022.15,0 c 22.44,0 37.44,12.1875 37.44,27.2969 m -21.03,54.3242 c 0,-8.6992 -5.61,-13.8945 -14.72,-13.8945 -9.41,0 -14.6,5.1953 -14.6,13.8945 0,8 5.48,14.0234 14.88,14.0234 9.26,0 14.44,-5.4687 14.44,-14.0234 m 6.18,-56.4453 c 0,-7.6172 -7.15,-13.543 -20.21,-13.543 -10.1,0 -17.11,4.5 -17.11,11.9922 0,4.8047 3.09,9.0313 7.85,12.4219 l 3.79,0 12.78,-0.4219 c 8.98,-0.4297 12.9,-4.375 12.9,-10.4492 m 104.75,11.4375 0,9.2383 c -3.79,0.2734 -8.28,0.8398 -11.64,1.3945 l 0,58.0669 c -8.54,0.421 -18.22,0 -25.65,-0.985 l 0,-9.2382 c 3.64,-0.2851 7.72,-0.8398 10.8,-1.2617 l 0,-22.0312 c 0,-14.0313 -7.85,-25.1055 -18.24,-25.1055 -8.14,0 -10.52,5.1836 -10.52,13.8867 l 0,44.7349 c -9.11,0.421 -19.06,-0.145 -26.35,-0.985 l 0,-9.2382 c 3.63,-0.2851 8.13,-0.8398 11.49,-1.3984 l 0,-37.1875 c 0,-12.1953 5.04,-22.2851 20.88,-22.2851 11.65,0 20.07,6.1718 24.13,15.1367 l 0.3,0 c -0.72,-4.2071 -1,-9.8047 -1,-13.7305 8.42,-0.418 18.51,0.1484 25.8,0.9883 m 90.45,-0.9883 0,9.2383 c -3.36,0.8398 -7.42,1.543 -11.49,1.8281 l 0,37.7344 c 0,12.207 -5.04,22.2932 -20.88,22.2932 -11.65,0 -20.07,-6.172 -24.13,-15.1252 l -0.29,0 c 0.71,4.0507 0.99,10.0782 0.99,13.7192 -8.42,0.421 -18.51,-0.145 -26.35,-0.985 l 0,-9.2382 c 4.06,-0.2851 8.83,-0.8398 12.19,-1.3984 l 0,-47 c -4.2,-0.2851 -8.55,-0.9883 -12.19,-1.8281 l 0,-9.2383 37.84,0 0,9.3867 c -3.23,0.8399 -7.14,1.3946 -10.8,1.6797 l 0,22.4492 c 0,14.0235 7.87,25.1094 18.25,25.1094 7.99,0 10.38,-5.1875 10.38,-13.8867 l 0,-44.7383 26.48,0 z m 76.45,-8.3281 c 0,12.9492 -8.4,19.6679 -23.56,20.2344 l -11.79,0.4179 c -8.28,0.2656 -11.49,1.3789 -11.49,4.9805 0,1.7969 1.4,3.8789 4.06,5.1367 2.25,-0.5547 4.08,-0.8398 6.6,-0.8398 19.77,0 29.58,10.6445 29.58,25.2343 0,4.6289 -1.67,8.5547 -4.61,11.086 l 10.64,0 0,11.7661 -23.69,0 c -3.64,0.851 -6.45,1.406 -10.51,1.406 -19.78,0 -30.16,-12.1877 -30.16,-26.219 0,-9.1211 3.93,-15.4297 10.38,-19.0742 -4.77,-2.2344 -7.98,-6.9727 -7.98,-11.961 0,-4.7382 2.65,-8.6523 6.86,-10.4804 -6.03,-3.3594 -11.35,-10.2735 -11.35,-18.0469 C 1249.37,7.28516 1260.72,0 1278.95,0 c 22.45,0 37.44,12.1875 37.44,27.2969 m -21.02,54.3242 c 0,-8.6992 -5.61,-13.8945 -14.74,-13.8945 -9.4,0 -14.59,5.1953 -14.59,13.8945 0,8 5.46,14.0234 14.88,14.0234 9.26,0 14.45,-5.4687 14.45,-14.0234 m 6.17,-56.4453 c 0,-7.6172 -7.16,-13.543 -20.2,-13.543 -10.11,0 -17.12,4.5 -17.12,11.9922 0,4.8047 3.07,9.0313 7.85,12.4219 l 3.79,0 12.77,-0.4219 c 8.98,-0.4297 12.91,-4.375 12.91,-10.4492 m 89.59,101.8872 c 0,5.183 -4.33,9.382 -9.67,9.382 -5.31,0 -9.53,-4.199 -9.53,-9.382 0,-5.325 4.22,-9.395 9.53,-9.395 5.34,0 9.67,4.207 9.67,9.395 m 9.41,-91.438 0,9.2383 c -3.37,0.8398 -7.59,1.543 -11.64,1.8281 l 0,58.6216 c -9.11,0.429 -19.2,-0.145 -27.05,-0.985 l 0,-9.2382 c 4.06,-0.2851 8.82,-0.8398 12.19,-1.3984 l 0,-47 c -4.21,-0.2851 -8.55,-0.9883 -12.19,-1.8281 l 0,-9.2383 38.69,0 z m 132.53,0 0,9.2383 c -3.36,0.8398 -7.44,1.543 -11.51,1.8281 l 0,37.0391 c 0,15.6953 -7.42,22.9885 -20.74,22.9885 -12.76,0 -20.35,-8.4065 -23.42,-14.9885 -1.13,6.1601 -5.61,14.9885 -19.22,14.9885 -10.8,0 -19.64,-6.035 -23.71,-15.2737 l -0.13,0.1485 c 0.7,4.1992 0.97,10.0782 0.97,13.7192 -8.41,0.421 -18.63,-0.145 -26.48,-0.985 l 0,-9.2382 c 4.06,-0.2851 8.84,-0.8398 12.2,-1.3984 l 0,-47 c -4.21,-0.2851 -8.55,-0.9883 -12.2,-1.8281 l 0,-9.2383 37.85,0 0,9.3867 c -3.22,0.8399 -7.15,1.3946 -10.8,1.6797 l 0,22.168 c 0,14.7265 8.42,25.3906 17.96,25.3906 8.42,0 9.97,-6.1719 9.97,-14.1719 l 0,-44.4531 25.64,0 0,9.3867 c -3.22,0.8399 -7.15,1.3946 -10.8,1.6797 l 0,22.168 c 0,15.4297 8.99,25.3906 17.97,25.3906 7.99,0 9.96,-5.6172 9.96,-14.1719 l 0,-44.4531 26.49,0 z m 144.74,85.273 0,9.375 -34.49,0 0,-9.375 c 3.09,-0.839 6.74,-1.394 10.23,-1.679 0,-27.7815 0.29,-49.1018 1.26,-65.0979 -3.21,6.875 -7,14.5898 -10.8,21.4648 l -32.82,54.6871 -32.81,0 0,-9.238 c 3.65,-0.84 8,-1.531 12.21,-1.816 l 0,-72.5276 c -4.21,-0.2851 -8.56,-0.9883 -12.21,-1.8281 l 0,-9.2383 37.71,0 0,9.3867 c -3.36,0.8399 -7.14,1.3946 -10.8,1.6797 0,28.1914 -0.13,50.2149 -1.25,65.6446 2.93,-6.867 6.72,-14.5899 10.79,-21.5938 l 32.98,-55.1172 20.6,0 0,83.594 c 3.23,0.285 6.44,0.976 9.4,1.679 m 71.25,-43.2105 c 0,15.8594 -8.28,29.0315 -28.2,29.0315 -20.2,0 -32.09,-15.8401 -32.09,-36.7268 0,-24.5625 11.89,-35.7734 33.36,-35.7734 8.71,0 17.4,1.6914 24.68,4.4921 l -1.97,11.6329 c -6.3,-2.6758 -13.3,-4.0743 -20.05,-4.0743 -14.3,0 -21.04,7.0235 -20.61,22.8828 l 44.31,0 c 0.43,2.9375 0.57,6.2969 0.57,8.5352 m -15,1.8242 -29.61,0 c 1.27,9.6875 7.15,15.9961 15.57,15.9961 8.85,0 14.33,-6.1719 14.04,-15.9961 m 70.94,-43.4648 -1.25,12.039 c -2.52,-0.5546 -5.47,-0.9765 -8.55,-0.9765 -7.03,0 -9.13,2.8125 -9.13,13.1836 l 0,33.3984 18.24,0 0,11.6216 -18.24,0 0,26.222 -14.99,-4.062 0,-22.16 -13.32,0 0,-11.6216 13.32,0 0,-38.0273 c 0,-15.5547 4.49,-21.2969 19.35,-21.2969 4.63,0 10.37,0.7031 14.57,1.6797 m 64.1,-0.4219 0,22.0039 -9.53,0 c -0.69,-3.3594 -1.25,-6.7305 -1.53,-9.8164 l -8.28,0 c -5.05,0 -11.79,0 -15.15,-0.1445 l 33.8,46.7187 0,10.9263 -50.34,0 0,-21.0239 9.52,0 c 0.69,3.3672 1.12,6.3086 1.53,9.539 l 7.44,0 c 5.47,0 11.66,0.1367 15.02,0.2852 l -34.22,-47.5703 0,-10.918 51.74,0"
           inkscape:connector-curvature="0" />
      </g>
    </g>
  </g>
</svg>
